<svg width="14" height="14" viewBox="0 0 14 14" fill="none" xmlns="http://www.w3.org/2000/svg">
<g id="Box 11">
<g id="Group 12">
<path id="Ellipse 1" d="M11.6666 8.06061C11.6666 10.6965 9.57725 12.8333 6.99992 12.8333C4.42259 12.8333 2.33325 10.6965 2.33325 8.06061C2.33325 7.09917 2.61991 5.48933 3.49992 4.66667L4.70175 6.2691C4.87219 6.49637 5.25331 6.37137 5.26685 6.08762C5.33536 4.65216 5.64639 1.94907 6.99992 1.16667C6.99992 1.16667 11.6666 5.4247 11.6666 8.06061Z" stroke="black" stroke-width="0.875" stroke-linejoin="round"/>
<path id="Ellipse 2" d="M6.99992 11.0833C6.6169 11.0833 6.23762 11.0078 5.88376 10.8612C5.52989 10.7147 5.20836 10.4998 4.93752 10.229C4.66669 9.95815 4.45185 9.63661 4.30527 9.28275C4.15869 8.92888 4.08325 8.54961 4.08325 8.16659" stroke="black" stroke-width="0.875" stroke-linecap="round"/>
</g>
</g>
</svg>
